<svg xmlns="http://www.w3.org/2000/svg" viewBox="0 0 100 35"><defs><style>.cls-1{fill:#ff5331;}.cls-2{fill:#fff;}</style></defs><title>share</title><g id="Layer_2" data-name="Layer 2"><rect class="cls-1" width="100" height="35" rx="4"/><path class="cls-2" d="M37,15.61a1.84,1.84,0,0,0-.39-.59,2,2,0,0,0-.59-.4,1.92,1.92,0,0,0-.72-.14,1.84,1.84,0,0,0-1.21.45A8.5,8.5,0,0,0,32,14a9.4,9.4,0,0,0-2.49-.4l1.06-3,2.63.62h0a1.49,1.49,0,1,0,.1-.55l-3.1-.76-1.29,3.67a10.25,10.25,0,0,0-2.59.38,8.62,8.62,0,0,0-2.15.94A1.76,1.76,0,0,0,23,14.48a1.89,1.89,0,0,0-.72.14,1.94,1.94,0,0,0-.58.4,1.84,1.84,0,0,0-.39.59,1.65,1.65,0,0,0-.14.7,1.78,1.78,0,0,0,.22.89,1.93,1.93,0,0,0,.61.66l0,.28a2.71,2.71,0,0,0,0,.29,3.38,3.38,0,0,0,.56,1.87A5.25,5.25,0,0,0,24,21.84a8.14,8.14,0,0,0,2.29,1,10.47,10.47,0,0,0,5.59,0,8,8,0,0,0,2.29-1,5.29,5.29,0,0,0,1.55-1.54,3.46,3.46,0,0,0,.56-1.87,3.64,3.64,0,0,0,0-.56,1.76,1.76,0,0,0,.64-.66,1.73,1.73,0,0,0,.24-.9A1.66,1.66,0,0,0,37,15.61ZM26.67,20.78c-.2-.15-.32-.4-.13-.57s.38,0,.53.14a3.83,3.83,0,0,0,2,.57,4.29,4.29,0,0,0,2.14-.58c.17-.15.36-.29.55-.11s0,.41-.18.55a4.29,4.29,0,0,1-2.51.72A4,4,0,0,1,26.67,20.78Zm.19-4.33a1.13,1.13,0,1,1-1.14,1.13A1.14,1.14,0,0,1,26.86,16.45Zm4.71,2.23a1.13,1.13,0,1,1,1.13-1.12A1.13,1.13,0,0,1,31.57,18.68Z"/><path class="cls-2" d="M49.67,20.06A1.35,1.35,0,0,0,49.2,19a4.16,4.16,0,0,0-1.69-.72,5.47,5.47,0,0,1-2.29-1,2.11,2.11,0,0,1-.82-1.71,2.24,2.24,0,0,1,.89-1.81A3.51,3.51,0,0,1,47.58,13a3.45,3.45,0,0,1,2.42.83,2.48,2.48,0,0,1,.86,1.93v0H49.66a1.73,1.73,0,0,0-.54-1.32,2.19,2.19,0,0,0-1.54-.5,2.16,2.16,0,0,0-1.43.42,1.4,1.4,0,0,0-.5,1.11,1.21,1.21,0,0,0,.54,1,5,5,0,0,0,1.75.71,4.9,4.9,0,0,1,2.22,1.07A2.28,2.28,0,0,1,50.93,20a2.13,2.13,0,0,1-.92,1.8,3.92,3.92,0,0,1-2.39.68,4.13,4.13,0,0,1-2.44-.75,2.26,2.26,0,0,1-1-2v0h1.19A1.55,1.55,0,0,0,46,21.07a2.69,2.69,0,0,0,1.61.46,2.54,2.54,0,0,0,1.5-.39A1.27,1.27,0,0,0,49.67,20.06Z"/><path class="cls-2" d="M53.76,16.44a2.49,2.49,0,0,1,.88-.77,2.29,2.29,0,0,1,1.14-.28,2.22,2.22,0,0,1,1.71.66,2.9,2.9,0,0,1,.61,2v4.3H56.85V18.07a1.86,1.86,0,0,0-.36-1.26,1.39,1.39,0,0,0-1.09-.4,1.85,1.85,0,0,0-.94.24,2,2,0,0,0-.7.66v5.07H52.51v-9.9h1.25Z"/><path class="cls-2" d="M64.12,22.38c0-.2-.07-.39-.1-.54s0-.32,0-.48a2.78,2.78,0,0,1-.91.82A2.52,2.52,0,0,1,60.23,22a2,2,0,0,1-.56-1.52,1.76,1.76,0,0,1,.79-1.53,3.71,3.71,0,0,1,2.16-.56H64v-.68a1.23,1.23,0,0,0-.37-.95,1.41,1.41,0,0,0-1-.36,1.55,1.55,0,0,0-1,.31.93.93,0,0,0-.37.74H60v0A1.65,1.65,0,0,1,60.72,16a2.91,2.91,0,0,1,1.92-.62,2.86,2.86,0,0,1,1.88.59,2.09,2.09,0,0,1,.71,1.71V21c0,.25,0,.48,0,.71a3.8,3.8,0,0,0,.14.67Zm-2.07-.92a2.22,2.22,0,0,0,1.22-.34,1.66,1.66,0,0,0,.71-.8V19.2h-1.4a1.84,1.84,0,0,0-1.21.38,1.16,1.16,0,0,0-.45.9.94.94,0,0,0,.28.72A1.19,1.19,0,0,0,62.05,21.46Z"/><path class="cls-2" d="M70.3,16.62l-.64,0a1.43,1.43,0,0,0-.84.24,1.45,1.45,0,0,0-.52.66v4.9H67.05V15.52h1.12l.12,1a2.26,2.26,0,0,1,.72-.83,1.65,1.65,0,0,1,1-.3l.27,0,.21.05Z"/><path class="cls-2" d="M74.23,22.52a2.9,2.9,0,0,1-2.28-1,3.6,3.6,0,0,1-.85-2.48V18.8A3.55,3.55,0,0,1,72,16.36a2.68,2.68,0,0,1,2.06-1,2.59,2.59,0,0,1,2.1.84,3.3,3.3,0,0,1,.71,2.23v.78H72.4l0,0a2.72,2.72,0,0,0,.5,1.63,1.6,1.6,0,0,0,1.35.63,3.17,3.17,0,0,0,1.12-.18,2.49,2.49,0,0,0,.83-.5l.49.82a3.1,3.1,0,0,1-1,.61A3.91,3.91,0,0,1,74.23,22.52ZM74,16.37A1.36,1.36,0,0,0,73,16.9a2.42,2.42,0,0,0-.54,1.33v0H75.6v-.17a1.9,1.9,0,0,0-.39-1.22A1.4,1.4,0,0,0,74,16.37Z"/></g></svg>