<svg xmlns="http://www.w3.org/2000/svg" viewBox="0 0 100 35"><defs><style>.cls-1{fill:#3b5998;}.cls-2{fill:#fff;}</style></defs><title>share</title><g id="Layer_2" data-name="Layer 2"><rect class="cls-1" width="100" height="35" rx="4"/><path class="cls-2" d="M46.47,20.06A1.35,1.35,0,0,0,46,19a4.16,4.16,0,0,0-1.69-.72,5.47,5.47,0,0,1-2.29-1,2.11,2.11,0,0,1-.82-1.71,2.27,2.27,0,0,1,.89-1.81A3.51,3.51,0,0,1,44.38,13a3.45,3.45,0,0,1,2.42.83,2.48,2.48,0,0,1,.86,1.93v0H46.46a1.73,1.73,0,0,0-.54-1.32,2.19,2.19,0,0,0-1.54-.5,2.16,2.16,0,0,0-1.43.42,1.4,1.4,0,0,0-.5,1.11,1.21,1.21,0,0,0,.54,1,5,5,0,0,0,1.75.71A4.9,4.9,0,0,1,47,18.3,2.28,2.28,0,0,1,47.73,20a2.13,2.13,0,0,1-.92,1.8,3.9,3.9,0,0,1-2.38.68A4.13,4.13,0,0,1,42,21.77a2.29,2.29,0,0,1-1-2v0h1.19a1.55,1.55,0,0,0,.66,1.35,2.7,2.7,0,0,0,1.62.46,2.53,2.53,0,0,0,1.49-.39A1.27,1.27,0,0,0,46.47,20.06Z"/><path class="cls-2" d="M50.56,16.44a2.49,2.49,0,0,1,.88-.77,2.29,2.29,0,0,1,1.14-.28,2.21,2.21,0,0,1,1.71.66,2.9,2.9,0,0,1,.62,2v4.3H53.66V18.07a1.86,1.86,0,0,0-.37-1.26,1.39,1.39,0,0,0-1.09-.4,1.85,1.85,0,0,0-.94.24,2.1,2.1,0,0,0-.7.66v5.07H49.31v-9.9h1.25Z"/><path class="cls-2" d="M60.92,22.38c0-.2-.07-.39-.1-.54s0-.32,0-.48a2.78,2.78,0,0,1-.91.82,2.24,2.24,0,0,1-1.21.34A2.26,2.26,0,0,1,57,22a2,2,0,0,1-.56-1.52,1.76,1.76,0,0,1,.79-1.53,3.75,3.75,0,0,1,2.17-.56h1.35v-.68a1.26,1.26,0,0,0-.36-.95,1.45,1.45,0,0,0-1.05-.36,1.55,1.55,0,0,0-1,.31.93.93,0,0,0-.37.74h-1.2v0A1.65,1.65,0,0,1,57.52,16a2.91,2.91,0,0,1,1.92-.62,2.86,2.86,0,0,1,1.88.59A2.09,2.09,0,0,1,62,17.69V21c0,.25,0,.48,0,.71a3.8,3.8,0,0,0,.14.67Zm-2.07-.92a2.22,2.22,0,0,0,1.22-.34,1.66,1.66,0,0,0,.71-.8V19.2h-1.4a1.84,1.84,0,0,0-1.21.38,1.16,1.16,0,0,0-.45.9.94.94,0,0,0,.28.72A1.19,1.19,0,0,0,58.85,21.46Z"/><path class="cls-2" d="M67.1,16.62l-.64,0a1.43,1.43,0,0,0-.84.24,1.45,1.45,0,0,0-.52.66v4.9H63.85V15.52H65l.12,1a2.26,2.26,0,0,1,.72-.83,1.65,1.65,0,0,1,1-.3l.27,0,.21.05Z"/><path class="cls-2" d="M71,22.52a2.9,2.9,0,0,1-2.28-1,3.6,3.6,0,0,1-.84-2.48V18.8a3.54,3.54,0,0,1,.87-2.44,2.68,2.68,0,0,1,2.06-1,2.59,2.59,0,0,1,2.1.84,3.3,3.3,0,0,1,.72,2.23v.78H69.2l0,0a2.72,2.72,0,0,0,.5,1.63,1.6,1.6,0,0,0,1.35.63,3.17,3.17,0,0,0,1.12-.18,2.49,2.49,0,0,0,.83-.5l.49.82a3.1,3.1,0,0,1-1,.61A3.91,3.91,0,0,1,71,22.52Zm-.19-6.15a1.38,1.38,0,0,0-1.07.53,2.42,2.42,0,0,0-.54,1.33v0h3.17v-.17a1.9,1.9,0,0,0-.4-1.22A1.4,1.4,0,0,0,70.84,16.37Z"/><g id="contact-section"><g id="social-links"><g id="facebook"><path class="cls-2" d="M32.6,11.39H34V9a18.67,18.67,0,0,0-2-.11c-2,0-3.39,1.27-3.39,3.6v2.15H26.34v2.72h2.23v6.85h2.72V17.31h2.14l.34-2.72H31.29V12.71C31.29,11.92,31.51,11.39,32.6,11.39Z"/></g></g></g></g></svg>