<svg xmlns="http://www.w3.org/2000/svg" viewBox="0 0 100 35"><defs><style>.cls-1{fill:#158aca;}.cls-2{fill:#039be5;}.cls-3{fill:#fff;}</style></defs><title>share</title><g id="Layer_2" data-name="Layer 2"><rect class="cls-1" width="100" height="35" rx="4"/><circle class="cls-2" cx="19.67" cy="17.5" r="9"/><path class="cls-3" d="M14.79,17.3,23.47,14c.4-.15.75.1.62.71h0l-1.47,7c-.11.49-.41.61-.82.38l-2.25-1.66-1.08,1a.57.57,0,0,1-.46.23l.16-2.29,4.17-3.77c.19-.16,0-.25-.28-.09l-5.15,3.24L14.69,18c-.48-.15-.49-.48.1-.72Z"/><path class="cls-3" d="M43.2,13.81h-3v8.25H39V13.81H36v-1H43.2Z"/><path class="cls-3" d="M46.61,22.2a2.9,2.9,0,0,1-2.28-1,3.6,3.6,0,0,1-.85-2.48v-.28A3.5,3.5,0,0,1,44.36,16a2.68,2.68,0,0,1,2.06-1,2.59,2.59,0,0,1,2.1.84,3.3,3.3,0,0,1,.71,2.23v.78H44.78l0,0a2.72,2.72,0,0,0,.5,1.63,1.6,1.6,0,0,0,1.35.63A3.17,3.17,0,0,0,47.73,21a2.35,2.35,0,0,0,.82-.5l.49.82a2.87,2.87,0,0,1-1,.6A3.75,3.75,0,0,1,46.61,22.2Zm-.19-6.15a1.36,1.36,0,0,0-1.07.53,2.5,2.5,0,0,0-.55,1.33l0,0H48v-.17a1.9,1.9,0,0,0-.39-1.22A1.4,1.4,0,0,0,46.42,16.05Z"/><path class="cls-3" d="M52,22.06H50.74v-9.9H52Z"/><path class="cls-3" d="M56.76,22.2a2.9,2.9,0,0,1-2.28-1,3.6,3.6,0,0,1-.85-2.48v-.28A3.5,3.5,0,0,1,54.51,16a2.68,2.68,0,0,1,2.06-1,2.59,2.59,0,0,1,2.1.84,3.3,3.3,0,0,1,.71,2.23v.78H54.93l0,0a2.72,2.72,0,0,0,.5,1.63,1.6,1.6,0,0,0,1.35.63A3.17,3.17,0,0,0,57.88,21a2.49,2.49,0,0,0,.83-.5l.48.82a2.87,2.87,0,0,1-1,.6A3.75,3.75,0,0,1,56.76,22.2Zm-.19-6.15a1.36,1.36,0,0,0-1.07.53A2.5,2.5,0,0,0,55,17.91l0,0h3.16v-.17a1.9,1.9,0,0,0-.39-1.22A1.4,1.4,0,0,0,56.57,16.05Z"/><path class="cls-3" d="M60.51,18.76a4.55,4.55,0,0,1,.73-2.68,2.33,2.33,0,0,1,2-1,2.5,2.5,0,0,1,1.15.26,2.29,2.29,0,0,1,.82.76l.15-.89h1v6.9a2.63,2.63,0,0,1-.77,2,3.16,3.16,0,0,1-2.21.71,4.7,4.7,0,0,1-1.07-.14,3.86,3.86,0,0,1-1-.37l.31-1a3.34,3.34,0,0,0,.81.31,3.88,3.88,0,0,0,.94.11,1.8,1.8,0,0,0,1.33-.41,1.72,1.72,0,0,0,.42-1.27v-.77a2.13,2.13,0,0,1-.81.65,2.59,2.59,0,0,1-1.07.22,2.39,2.39,0,0,1-2-.92,3.74,3.74,0,0,1-.73-2.39Zm1.25.13a2.86,2.86,0,0,0,.44,1.66,1.53,1.53,0,0,0,1.34.63,1.58,1.58,0,0,0,.94-.26,1.85,1.85,0,0,0,.63-.72V17a1.86,1.86,0,0,0-.63-.7,1.66,1.66,0,0,0-.93-.26,1.46,1.46,0,0,0-1.34.75,3.7,3.7,0,0,0-.45,1.93Z"/><path class="cls-3" d="M71.43,16.3l-.64,0a1.43,1.43,0,0,0-.84.24,1.39,1.39,0,0,0-.52.66v4.9H68.18V15.2h1.11l.12,1a2.46,2.46,0,0,1,.72-.83,1.7,1.7,0,0,1,1-.3l.27,0,.21.05Z"/><path class="cls-3" d="M76.85,22.06c0-.2-.07-.39-.1-.54s0-.32,0-.48a2.78,2.78,0,0,1-.91.82A2.52,2.52,0,0,1,73,21.65a2,2,0,0,1-.56-1.52,1.76,1.76,0,0,1,.79-1.53A3.64,3.64,0,0,1,75.35,18h1.36v-.68a1.23,1.23,0,0,0-.37-.95,1.41,1.41,0,0,0-1-.36,1.55,1.55,0,0,0-1,.31.93.93,0,0,0-.37.74h-1.2v0a1.65,1.65,0,0,1,.71-1.37,2.91,2.91,0,0,1,1.92-.62,2.86,2.86,0,0,1,1.88.59A2.09,2.09,0,0,1,78,17.37v3.31c0,.25,0,.48,0,.71a3.8,3.8,0,0,0,.14.67Zm-2.07-.92A2.22,2.22,0,0,0,76,20.8a1.66,1.66,0,0,0,.71-.8V18.88h-1.4a1.84,1.84,0,0,0-1.21.38,1.15,1.15,0,0,0-.45.9.94.94,0,0,0,.28.72A1.19,1.19,0,0,0,74.78,21.14Z"/><path class="cls-3" d="M80.9,15.2l.09.9a2.3,2.3,0,0,1,.85-.76,2.53,2.53,0,0,1,1.2-.27,2.15,2.15,0,0,1,1.18.32,1.94,1.94,0,0,1,.74.95,2.49,2.49,0,0,1,.86-.93,2.22,2.22,0,0,1,1.24-.34,2.07,2.07,0,0,1,1.66.72A3.32,3.32,0,0,1,89.33,18v4.1H88.08V17.94a2.29,2.29,0,0,0-.35-1.43,1.29,1.29,0,0,0-1-.43,1.31,1.31,0,0,0-1,.45,1.93,1.93,0,0,0-.47,1.12v4.41H83.92V17.94a2.25,2.25,0,0,0-.35-1.41,1.26,1.26,0,0,0-1-.45,1.7,1.7,0,0,0-.94.24A1.58,1.58,0,0,0,81,17v5.08H79.78V15.2Z"/></g></svg>