<svg xmlns="http://www.w3.org/2000/svg" viewBox="0 0 100 35"><defs><style>.cls-1{fill:#7d7d7d;}.cls-2{fill:#fff;}</style></defs><title>share</title><g id="Layer_2" data-name="Layer 2"><rect class="cls-1" width="100" height="35" rx="4"/><path class="cls-2" d="M36.25,11.5h-12A1.5,1.5,0,0,0,22.76,13v9a1.5,1.5,0,0,0,1.5,1.5h12a1.5,1.5,0,0,0,1.5-1.5V13A1.51,1.51,0,0,0,36.25,11.5Zm0,3-6,3.75-6-3.75V13l6,3.75,6-3.75Z"/><path class="cls-2" d="M52.23,18.1H48v3.3h4.88v1H46.75V13.14h6.06v1H48v3h4.23Z"/><path class="cls-2" d="M55.23,15.52l.09.9a2.3,2.3,0,0,1,.85-.76,2.6,2.6,0,0,1,1.21-.27,2.11,2.11,0,0,1,1.17.32,1.88,1.88,0,0,1,.74.95,2.57,2.57,0,0,1,.86-.93,2.24,2.24,0,0,1,1.24-.34,2.05,2.05,0,0,1,1.66.72,3.27,3.27,0,0,1,.61,2.17v4.1H62.41V18.26a2.29,2.29,0,0,0-.35-1.43,1.27,1.27,0,0,0-1-.42,1.32,1.32,0,0,0-1,.44A1.92,1.92,0,0,0,59.52,18v4.41H58.26V18.26a2.25,2.25,0,0,0-.36-1.41,1.23,1.23,0,0,0-1-.44,1.68,1.68,0,0,0-.94.23,1.53,1.53,0,0,0-.57.66v5.08H54.11V15.52Z"/><path class="cls-2" d="M69.7,22.38a4.91,4.91,0,0,1-.1-.54,2.59,2.59,0,0,1,0-.48,3,3,0,0,1-.91.82A2.54,2.54,0,0,1,65.8,22a2,2,0,0,1-.56-1.52,1.77,1.77,0,0,1,.8-1.53,3.71,3.71,0,0,1,2.16-.56h1.36v-.68a1.26,1.26,0,0,0-.37-.95,1.43,1.43,0,0,0-1-.36,1.51,1.51,0,0,0-1,.31.91.91,0,0,0-.38.74H65.6l0,0A1.68,1.68,0,0,1,66.29,16a2.94,2.94,0,0,1,1.93-.62A2.88,2.88,0,0,1,70.1,16a2.12,2.12,0,0,1,.71,1.71V21c0,.25,0,.48,0,.71a5,5,0,0,0,.14.67Zm-2.08-.92a2.28,2.28,0,0,0,1.23-.34,1.71,1.71,0,0,0,.71-.8V19.2H68.15a1.86,1.86,0,0,0-1.21.38,1.16,1.16,0,0,0-.45.9,1,1,0,0,0,.29.72A1.18,1.18,0,0,0,67.62,21.46Z"/><path class="cls-2" d="M74,13.76H72.73V12.48H74Zm0,8.62H72.73V15.52H74Z"/><path class="cls-2" d="M77.25,22.38H76v-9.9h1.25Z"/></g></svg>