<svg xmlns="http://www.w3.org/2000/svg" viewBox="0 0 100 35"><defs><style>.cls-1{fill:#5aadeb;}.cls-2{fill:#fff;}</style></defs><title>share</title><g id="Layer_2" data-name="Layer 2"><rect class="cls-1" width="100" height="35" rx="4"/><path id="path24592" class="cls-2" d="M37.19,12.39a4,4,0,0,1-.59.86,4.82,4.82,0,0,1-1.08.91,2.45,2.45,0,0,1,0,.27,9.76,9.76,0,0,1-.68,3.72A9.81,9.81,0,0,1,31,23a10.23,10.23,0,0,1-6.1,1.11,7,7,0,0,1-3.67-1.41,6.9,6.9,0,0,0,4.89-1.41A3.37,3.37,0,0,1,23,19a2,2,0,0,0,.69,0,5.18,5.18,0,0,0,.79-.11,3.6,3.6,0,0,1-2.23-1.73,3.75,3.75,0,0,1-.38-1.64,3.11,3.11,0,0,0,1.48.45,3.84,3.84,0,0,1-1.45-2.36,4.38,4.38,0,0,1,.4-2.14,11.25,11.25,0,0,0,3.81,2.86,7.89,7.89,0,0,0,3,.62,3.94,3.94,0,0,1,.4-2.53,3.45,3.45,0,0,1,2.06-1.5,3,3,0,0,1,3.05,1,5.4,5.4,0,0,0,2.12-.79A3.17,3.17,0,0,1,35.25,13,8.91,8.91,0,0,0,37.19,12.39Z"/><path class="cls-2" d="M51.38,13.8h-3v8.25H47.16V13.8h-3v-1h7.19Z"/><path class="cls-2" d="M54,19.55l.15.84h0l.17-.84,1.37-4.36h1l1.38,4.36.19.93h0l.18-.93,1.08-4.36h1.25l-2,6.86h-1l-1.33-4.18L56.2,16.7h0l-.28,1.16-1.31,4.18h-1l-2-6.86h1.25Z"/><path class="cls-2" d="M64.89,22.19a2.9,2.9,0,0,1-2.28-1,3.6,3.6,0,0,1-.85-2.48v-.28A3.5,3.5,0,0,1,62.64,16a2.68,2.68,0,0,1,2.06-1,2.59,2.59,0,0,1,2.1.84,3.3,3.3,0,0,1,.71,2.23v.78H63.06l0,0a2.72,2.72,0,0,0,.5,1.63,1.6,1.6,0,0,0,1.35.63A3.21,3.21,0,0,0,66,21a2.35,2.35,0,0,0,.82-.5l.49.82a3,3,0,0,1-1,.61A4,4,0,0,1,64.89,22.19ZM64.7,16a1.36,1.36,0,0,0-1.07.53,2.5,2.5,0,0,0-.55,1.33l0,0h3.16v-.17a1.9,1.9,0,0,0-.39-1.22A1.4,1.4,0,0,0,64.7,16Z"/><path class="cls-2" d="M71.77,22.19a2.91,2.91,0,0,1-2.29-1,3.6,3.6,0,0,1-.84-2.48v-.28A3.54,3.54,0,0,1,69.51,16a2.68,2.68,0,0,1,2.07-1,2.61,2.61,0,0,1,2.1.84,3.35,3.35,0,0,1,.71,2.23v.78H69.93l0,0a2.73,2.73,0,0,0,.51,1.63,1.6,1.6,0,0,0,1.35.63A3.15,3.15,0,0,0,72.88,21a2.39,2.39,0,0,0,.83-.5l.49.82a3.16,3.16,0,0,1-1,.61A4,4,0,0,1,71.77,22.19ZM71.58,16a1.38,1.38,0,0,0-1.08.53A2.58,2.58,0,0,0,70,17.9v0h3.17v-.17a1.85,1.85,0,0,0-.4-1.22A1.39,1.39,0,0,0,71.58,16Z"/><path class="cls-2" d="M77.44,13.53v1.66h1.3v.92h-1.3v4.17a.94.94,0,0,0,.2.68.74.74,0,0,0,.53.2l.24,0a.77.77,0,0,0,.23-.06l.17.86a1.12,1.12,0,0,1-.41.18,2,2,0,0,1-.55.08,1.65,1.65,0,0,1-1.21-.46,2,2,0,0,1-.45-1.45V16.11H75.1v-.92h1.09V13.53Z"/></g></svg>