<svg xmlns="http://www.w3.org/2000/svg" viewBox="0 0 100 35"><defs><style>.cls-1{fill:#1078b3;}.cls-2{fill:#fff;}</style></defs><title>share</title><g id="Layer_2" data-name="Layer 2"><rect class="cls-1" width="100" height="35" rx="4"/><path class="cls-2" d="M38.15,17.22v5.94H34.72V17.63c0-1-.36-2.3-1.73-2.34a1.94,1.94,0,0,0-1.76,1.25,2.33,2.33,0,0,0-.13.83v5.79H27.68c0-2.89,0-5.79,0-8.68,0-.82,0-1.37,0-1.66H31.1v1.46a4.63,4.63,0,0,1,1-1.12,3.47,3.47,0,0,1,2-.59A3.81,3.81,0,0,1,37,13.7,5.32,5.32,0,0,1,38.15,17.22Z"/><rect class="cls-2" x="22.35" y="12.82" width="3.42" height="10.34"/><path class="cls-2" d="M26,9.63a1.84,1.84,0,0,1-1.93,1.78h0a1.85,1.85,0,0,1-1.88-1.78,1.92,1.92,0,0,1,3.84,0Z"/><path class="cls-2" d="M50.67,20.06A1.35,1.35,0,0,0,50.2,19a4.16,4.16,0,0,0-1.69-.72,5.47,5.47,0,0,1-2.29-1,2.11,2.11,0,0,1-.82-1.71,2.24,2.24,0,0,1,.89-1.81A3.51,3.51,0,0,1,48.58,13a3.45,3.45,0,0,1,2.42.83,2.48,2.48,0,0,1,.86,1.93v0H50.66a1.73,1.73,0,0,0-.54-1.32,2.19,2.19,0,0,0-1.54-.5,2.16,2.16,0,0,0-1.43.42,1.4,1.4,0,0,0-.5,1.11,1.21,1.21,0,0,0,.54,1,5,5,0,0,0,1.75.71,4.9,4.9,0,0,1,2.22,1.07A2.28,2.28,0,0,1,51.93,20a2.13,2.13,0,0,1-.92,1.8,3.92,3.92,0,0,1-2.39.68,4.13,4.13,0,0,1-2.44-.75,2.26,2.26,0,0,1-1-2v0h1.19A1.55,1.55,0,0,0,47,21.07a2.69,2.69,0,0,0,1.61.46,2.54,2.54,0,0,0,1.5-.39A1.27,1.27,0,0,0,50.67,20.06Z"/><path class="cls-2" d="M54.76,16.44a2.49,2.49,0,0,1,.88-.77,2.29,2.29,0,0,1,1.14-.28,2.22,2.22,0,0,1,1.71.66,2.9,2.9,0,0,1,.61,2v4.3H57.85V18.07a1.86,1.86,0,0,0-.36-1.26,1.39,1.39,0,0,0-1.09-.4,1.85,1.85,0,0,0-.94.24,2,2,0,0,0-.7.66v5.07H53.51v-9.9h1.25Z"/><path class="cls-2" d="M65.12,22.38c0-.2-.07-.39-.1-.54s0-.32,0-.48a2.78,2.78,0,0,1-.91.82A2.52,2.52,0,0,1,61.23,22a2,2,0,0,1-.56-1.52,1.76,1.76,0,0,1,.79-1.53,3.71,3.71,0,0,1,2.16-.56H65v-.68a1.23,1.23,0,0,0-.37-.95,1.41,1.41,0,0,0-1-.36,1.55,1.55,0,0,0-1,.31.93.93,0,0,0-.37.74H61v0A1.65,1.65,0,0,1,61.72,16a2.91,2.91,0,0,1,1.92-.62,2.86,2.86,0,0,1,1.88.59,2.09,2.09,0,0,1,.71,1.71V21c0,.25,0,.48,0,.71a3.8,3.8,0,0,0,.14.67Zm-2.07-.92a2.22,2.22,0,0,0,1.22-.34,1.66,1.66,0,0,0,.71-.8V19.2h-1.4a1.84,1.84,0,0,0-1.21.38,1.16,1.16,0,0,0-.45.9.94.94,0,0,0,.28.72A1.19,1.19,0,0,0,63.05,21.46Z"/><path class="cls-2" d="M71.3,16.62l-.64,0a1.43,1.43,0,0,0-.84.24,1.45,1.45,0,0,0-.52.66v4.9H68.05V15.52h1.12l.12,1a2.26,2.26,0,0,1,.72-.83,1.65,1.65,0,0,1,1-.3l.27,0,.21.05Z"/><path class="cls-2" d="M75.23,22.52a2.9,2.9,0,0,1-2.28-1,3.6,3.6,0,0,1-.85-2.48V18.8A3.55,3.55,0,0,1,73,16.36a2.68,2.68,0,0,1,2.06-1,2.59,2.59,0,0,1,2.1.84,3.3,3.3,0,0,1,.71,2.23v.78H73.4l0,0a2.72,2.72,0,0,0,.5,1.63,1.6,1.6,0,0,0,1.35.63,3.17,3.17,0,0,0,1.12-.18,2.49,2.49,0,0,0,.83-.5l.49.82a3.1,3.1,0,0,1-1,.61A3.91,3.91,0,0,1,75.23,22.52ZM75,16.37A1.36,1.36,0,0,0,74,16.9a2.42,2.42,0,0,0-.54,1.33v0H76.6v-.17a1.9,1.9,0,0,0-.39-1.22A1.4,1.4,0,0,0,75,16.37Z"/></g></svg>